<?xml version="1.0" standalone="no"?>
<!DOCTYPE svg PUBLIC "-//W3C//DTD SVG 20010904//EN"
 "http://www.w3.org/TR/2001/REC-SVG-20010904/DTD/svg10.dtd">
<svg version="1.0" xmlns="http://www.w3.org/2000/svg"
 width="400.000000pt" height="400.000000pt" viewBox="0 0 400.000000 400.000000"
 preserveAspectRatio="xMidYMid meet">
<metadata>
Created by potrace 1.11, written by Peter Selinger 2001-2013
</metadata>
<g transform="translate(0.000000,400.000000) scale(0.100000,-0.100000)"
fill="#000000" stroke="none">
<path d="M1885 3703 c-63 -6 -224 -33 -290 -49 -107 -26 -207 -65 -342 -132
-380 -188 -691 -541 -832 -944 -125 -358 -118 -803 19 -1163 88 -233 209 -414
403 -604 222 -218 489 -364 800 -439 106 -25 125 -26 372 -27 248 0 265 1 372
27 508 123 910 438 1138 893 101 203 155 393 176 632 12 130 1 289 -32 460
-81 420 -339 811 -696 1053 -57 39 -105 70 -108 70 -2 0 -26 13 -52 28 -244
142 -625 222 -928 195z m295 -88 c356 -29 698 -193 971 -464 239 -239 389
-521 445 -841 26 -144 26 -456 1 -585 -22 -108 -51 -209 -83 -290 -41 -100
-45 -105 -76 -105 -41 0 -63 14 -143 88 -103 95 -150 117 -255 117 -108 0
-146 -18 -259 -122 -83 -77 -84 -77 -146 -81 -78 -5 -103 7 -205 103 -95 89
-147 110 -250 103 -80 -6 -142 -36 -216 -107 -88 -84 -121 -101 -189 -101 -67
0 -87 10 -161 86 -94 94 -184 132 -289 121 -71 -7 -138 -43 -220 -119 -87 -81
-101 -88 -167 -88 -64 0 -101 20 -178 97 -70 70 -136 104 -217 111 l-62 5 -20
76 c-27 102 -39 183 -47 326 -24 439 136 862 454 1196 267 281 633 452 1025
479 110 7 135 7 287 -5z m-767 -2216 c24 -6 65 -36 116 -83 99 -93 153 -119
246 -120 99 -1 152 22 242 106 151 139 218 142 354 12 99 -94 149 -118 249
-118 99 0 143 21 249 118 142 128 204 128 339 1 44 -41 100 -83 126 -94 28
-13 46 -27 46 -37 0 -33 -139 -211 -242 -309 -263 -253 -553 -395 -906 -446
-124 -17 -432 -6 -550 20 -422 94 -770 332 -1009 691 -62 92 -136 237 -128
250 17 27 64 -1 166 -97 76 -72 134 -97 229 -97 99 -1 151 24 253 120 95 90
138 106 220 83z"/>
<path d="M2640 2701 c-117 -38 -188 -114 -228 -245 -46 -153 7 -278 139 -326
65 -24 122 -25 186 -4 125 42 210 169 128 190 -21 5 -35 -3 -80 -45 -46 -44
-59 -51 -94 -51 -50 0 -71 26 -71 90 0 89 57 243 102 274 51 36 92 15 134 -67
15 -32 27 -43 48 -45 39 -5 50 8 86 108 26 73 29 94 20 105 -18 21 -56 18
-101 -7 l-39 -22 -47 24 c-51 25 -139 36 -183 21z"/>
<path d="M1152 2683 c-21 -19 -52 -101 -52 -139 0 -30 24 -48 55 -40 14 4 46
29 72 56 30 32 56 50 70 50 13 0 23 -5 23 -10 0 -10 -47 -181 -91 -332 -12
-42 -29 -77 -46 -92 -16 -15 -24 -30 -20 -40 5 -13 26 -16 134 -16 70 0 134 4
142 9 11 7 11 15 2 43 -10 29 -6 50 24 153 19 66 45 157 57 203 21 78 24 83
48 80 18 -2 30 -14 46 -46 22 -46 38 -62 65 -62 31 0 51 27 69 94 32 112 49
106 -289 106 -261 0 -291 -2 -309 -17z"/>
<path d="M1818 2690 c-15 -9 -38 -66 -52 -132 -7 -31 14 -58 46 -58 12 0 44
23 75 55 37 38 62 55 79 55 19 0 24 -4 20 -17 -3 -10 -19 -67 -35 -128 -67
-244 -73 -260 -103 -292 -17 -17 -27 -36 -24 -42 5 -7 55 -11 140 -11 150 0
164 5 145 56 -10 25 -4 54 35 199 64 232 66 235 92 235 17 0 30 -13 51 -52 45
-85 98 -75 128 25 19 65 19 103 -1 111 -27 10 -578 6 -596 -4z"/>
</g>
</svg>
